Project Thomaz Farkas is a collection of 39 documentaries produced by Thomas Farkas  in the 1960s and 1970s, featuring various cultural events of Brazil linked to the specific reality of each region. The documentaries were organized in a box containing seven discs, and include a short interview with the participation of renowned photographer, producer and documentary filmmaker, exposing a broad universe of Brazilian culture.

The Disc 4 contains the following documetaries:

Eduardo Escorel - Visão de Juazeiro (1970)
Manuel Horácio Gimenez - Nossa Escola de Samba (1965)
Maurice Capovilla - Subterraneos do Futebol (1965)

All films have Portuguese audio, and no subtitles. There's a 300 dpi scan of the DVD cover included.

   General
      Complete name : Projeto Thomaz Farkas - Maurice Capovilla, Eduardo Escorel, Manuel Horácio Gimenes.avi
      Format : AVI
      Format/Info : Audio Video Interleave
      File size : 1.09 GiB
      Duration : 1h 19mn
      Overall bit rate : 1 958 Kbps
      Writing application : VirtualDubMod 1.5.10.2 (build 2540/release)
      Writing library : VirtualDubMod build 2540/release
   Video #0
      ID : 0
      Format : MPEG-4 Visual
      Format profile : AdvancedSimple@L5
      Format settings, BVOP : Yes
      Format settings, QPel : No
      Format settings, GMC : No warppoints
      Format settings, Matrix : Default (MPEG)
      Muxing mode : Packed bitstream
      Codec ID : XVID
      Codec ID/Hint : XviD
      Duration : 1h 19mn
      Bit rate : 1 725 Kbps
      Width : 640 pixels
      Height : 464 pixels
      Display aspect ratio : 1.379
      Frame rate : 23.976 fps
      Resolution : 24 bits
      Colorimetry : 4:2:0
      Scan type : Progressive
      Bits/(Pixel*Frame) : 0.242
      Stream size : 982 MiB (88%)
      Writing library : XviD 1.2.0.dev47 (UTC 2006-11-01)
   Audio #1
      ID : 1
      Format : AC-3
      Format/Info : Audio Coding 3
      Codec ID : 2000
      Duration : 1h 19mn
      Bit rate mode : Constant
      Bit rate : 224 Kbps
      Channel(s) : 2 channels
      Channel positions : L R
      Sampling rate : 48.0 KHz
      Stream size : 128 MiB (11%)
      Alignment : Split accross interleaves
      Interleave, duration : 42 ms (1.00 video frame)
      Interleave, preload duration : 500 ms

Each film was ripped individually; the specs refer to the films assembled together.